<?xml version="1.0" encoding="utf-8"?>
<!-- Generator: Adobe Illustrator 23.1.1, SVG Export Plug-In . SVG Version: 6.00 Build 0)  -->
<svg version="1.1" id="Warstwa_1" xmlns="http://www.w3.org/2000/svg" xmlns:xlink="http://www.w3.org/1999/xlink" x="0px" y="0px"
	 viewBox="0 0 343 35.1" style="enable-background:new 0 0 343 35.1;" xml:space="preserve">
<style type="text/css">
	.st0{fill-rule:evenodd;clip-rule:evenodd;fill:#2F495E;}
	.st1{fill-rule:evenodd;clip-rule:evenodd;fill:#00C58E;}
	.st2{fill:none;}
	.st3{fill-rule:evenodd;clip-rule:evenodd;fill:#108775;}
	.st4{fill:#2F495E;}
	.st5{fill:#FF8700;}
	.st6{fill:#FB4A59;}
</style>
<g>
	<path class="st0" d="M64.7,11.8c0.2,0.2,0.3,0.5,0.3,0.9v16.6c0,0.4-0.1,0.7-0.4,1c-0.2,0.3-0.6,0.4-0.9,0.4c-0.2,0-0.4,0-0.6-0.1
		c-0.2-0.1-0.3-0.2-0.5-0.3l-10.8-14v13.2c0,0.3-0.1,0.6-0.3,0.9s-0.5,0.4-0.9,0.3c-0.3,0-0.6-0.1-0.8-0.3c-0.2-0.2-0.3-0.5-0.3-0.9
		V12.7c0-0.4,0.1-0.7,0.4-0.9c0.2-0.2,0.6-0.4,0.9-0.4c0.2,0,0.4,0,0.6,0.1c0.2,0.1,0.3,0.2,0.5,0.3l10.7,14V12.6
		c0-0.3,0.1-0.6,0.3-0.9s0.5-0.4,0.9-0.3C64.2,11.4,64.5,11.5,64.7,11.8z M86.8,11.8c0.2,0.3,0.4,0.6,0.3,0.9v10.5
		c0,1.4-0.3,2.7-1,3.9c-0.6,1.1-1.5,2.1-2.6,2.7c-1.2,0.7-2.5,1-3.8,1c-1.3,0-2.7-0.3-3.8-1c-1.1-0.6-2-1.6-2.7-2.7
		c-0.6-1.2-1-2.5-1-3.9V12.7c0-0.4,0.1-0.7,0.4-0.9c0.3-0.3,0.6-0.4,1-0.4c0.3,0,0.7,0.1,0.9,0.4c0.3,0.2,0.4,0.6,0.4,0.9v10.5
		c0,0.9,0.2,1.8,0.7,2.6c0.8,1.5,2.4,2.4,4.1,2.4c0.9,0,1.7-0.2,2.4-0.6c0.7-0.4,1.4-1,1.8-1.8c0.5-0.8,0.7-1.7,0.7-2.6V12.7
		c0-0.3,0.1-0.7,0.3-0.9c0.2-0.3,0.6-0.4,0.9-0.4C86.2,11.4,86.6,11.5,86.8,11.8z M107.9,28.6c0.2,0.2,0.3,0.5,0.2,0.8
		c0,0.4-0.1,0.7-0.4,0.9c-0.2,0.2-0.6,0.4-0.9,0.4c-0.4,0-0.8-0.2-1.1-0.5l-5.3-7.1l-5.2,7.1c-0.2,0.4-0.6,0.6-1.1,0.6
		c-0.3,0-0.6-0.1-0.8-0.3c-0.2-0.2-0.3-0.5-0.3-0.8c0-0.3,0.1-0.6,0.3-0.9l5.6-7.6l-5.6-7.6C93.1,13.2,93,13,93,12.7
		c0-0.4,0.1-0.7,0.4-0.9c0.2-0.2,0.6-0.4,0.9-0.4c0.2,0,0.4,0,0.6,0.1c0.2,0.1,0.4,0.2,0.5,0.4l5.3,7.1l5.2-7c0.2-0.4,0.6-0.6,1-0.6
		c0.3,0,0.6,0.1,0.9,0.4c0.2,0.2,0.4,0.5,0.4,0.8c0,0.3-0.1,0.6-0.3,0.8l-5.7,7.6C102.2,21,107.9,28.6,107.9,28.6z M127.6,11.8
		c0.3,0.2,0.4,0.6,0.4,0.9c0,0.3-0.1,0.7-0.4,0.9c-0.3,0.2-0.6,0.3-0.9,0.3h-4.9v15.3c0,0.4-0.1,0.7-0.4,0.9c-0.6,0.5-1.4,0.5-2,0
		c-0.3-0.2-0.4-0.6-0.4-0.9V13.9h-4.9c-0.3,0-0.7-0.1-0.9-0.3c-0.3-0.2-0.4-0.6-0.4-0.9c0-0.3,0.1-0.7,0.4-0.9
		c0.3-0.2,0.6-0.4,0.9-0.3h12.5C127,11.4,127.3,11.5,127.6,11.8z"/>
	<path class="st1" d="M133.6,30.1c-0.9-0.5-1.6-1.2-2.1-2.1c-0.2-0.2-0.2-0.5-0.2-0.7c0-0.3,0.2-0.7,0.4-0.9
		c0.2-0.2,0.5-0.4,0.8-0.4c0.5,0,0.9,0.3,1.2,0.7c0.6,1,1.7,1.6,2.9,1.6c0.9,0,1.9-0.3,2.5-1c0.7-0.6,1.1-1.5,1-2.5v-12
		c0-0.4,0.1-0.7,0.4-0.9c0.3-0.3,0.6-0.4,1-0.4c0.4,0,0.7,0.1,1,0.4c0.2,0.2,0.4,0.6,0.4,0.9v12c0,1.1-0.3,2.1-0.8,3.1
		c-0.5,0.9-1.3,1.7-2.3,2.2c-1,0.6-2.1,0.8-3.2,0.8C135.5,30.9,134.5,30.6,133.6,30.1L133.6,30.1z M152.4,30.3
		c-1.1-0.4-2.1-1-2.9-1.8c-0.4-0.3-0.6-0.7-0.6-1.1c0-0.3,0.1-0.7,0.4-0.9c0.2-0.3,0.6-0.4,0.9-0.4c0.3,0,0.6,0.1,0.8,0.3
		c0.7,0.6,1.4,1.1,2.3,1.5c0.8,0.3,1.7,0.5,2.6,0.5c1,0,2-0.2,2.9-0.8c0.7-0.4,1.2-1.2,1.2-2c0-0.9-0.4-1.7-1.2-2.2
		c-1.1-0.6-2.3-1.1-3.5-1.3c-1.9-0.4-3.3-1-4.3-1.9s-1.5-2.1-1.5-3.6c0-1,0.3-2,0.9-2.9c0.6-0.8,1.4-1.5,2.3-1.9
		c1.1-0.5,2.2-0.7,3.4-0.7c1.1,0,2.2,0.2,3.2,0.5c0.9,0.3,1.7,0.8,2.4,1.5c0.4,0.3,0.6,0.7,0.6,1.2c0,0.3-0.1,0.6-0.4,0.9
		c-0.2,0.3-0.6,0.4-0.9,0.4c-0.2,0-0.5-0.1-0.6-0.2c-0.6-0.5-1.2-0.9-2-1.2c-0.8-0.3-1.6-0.5-2.4-0.5c-1-0.1-2,0.2-2.9,0.8
		c-0.7,0.4-1.1,1.2-1.1,2c0,0.8,0.4,1.6,1.1,2c1,0.6,2.1,1,3.2,1.2c1.2,0.2,2.4,0.6,3.5,1.1c0.8,0.4,1.6,1,2.1,1.8
		c0.5,0.9,0.8,1.9,0.7,2.9c0,1-0.3,2-0.9,2.8c-0.6,0.8-1.5,1.5-2.4,1.9c-1.1,0.5-2.2,0.7-3.4,0.7C154.7,30.9,153.5,30.7,152.4,30.3z
		"/>
	<path class="st2" d="M2.3,29.1h8.8c0.1-0.3,0.2-0.7,0.3-1l8.3-14.6L15.4,6L2.3,29.1z M30.9,29.1H35l-10.8-19l-1.9,3.4l8.3,14.6
		C30.7,28.4,30.8,28.8,30.9,29.1z M21,15.8l-7.6,13.3h15.1L21,15.8z"/>
	<path class="st1" d="M11.4,30.3c0,0-0.1-0.1-0.1-0.2c-0.1-0.3-0.2-0.7-0.1-1.1H2.3L15.4,6l4.3,7.6l1.2-2.2l-3.8-6.6
		c-0.1-0.2-0.7-1.2-1.8-1.2c-0.5,0-1.2,0.2-1.8,1.2L0.4,28.1c-0.1,0.2-0.7,1.3-0.1,2.2c0.2,0.4,0.8,0.9,1.9,0.9h11.1
		C12.1,31.3,11.6,30.8,11.4,30.3z"/>
	<path class="st3" d="M36.9,28.1L26,8.9c-0.1-0.2-0.7-1.2-1.8-1.2c-0.5,0-1.2,0.2-1.8,1.2L21,11.4l1.3,2.2l1.9-3.4l10.8,19h-4.1
		c0.1,0.3,0,0.6-0.1,0.9c0,0.1-0.1,0.1-0.1,0.2l0,0.1c-0.6,0.9-1.7,1-2,1h6.4c0.2,0,1.4-0.1,2-1C37.4,29.9,37.5,29.1,36.9,28.1z"/>
	<path class="st4" d="M30.7,30.3L30.7,30.3c0.1-0.1,0.1-0.2,0.1-0.3c0.1-0.3,0.1-0.6,0.1-0.9c-0.1-0.3-0.2-0.7-0.4-1l-8.3-14.6
		L21,11.4l-1.3,2.2l-8.3,14.6c-0.2,0.3-0.3,0.6-0.3,1c-0.1,0.4,0,0.8,0.1,1.1c0,0.1,0,0.1,0.1,0.2c0.2,0.4,0.8,0.9,1.9,0.9h15.4
		C28.9,31.3,30.1,31.2,30.7,30.3z M21,15.8l7.6,13.3H13.4L21,15.8z"/>
</g>
<path class="st5" d="M242.5,21.9c-0.4,0.1-0.8,0.2-1.2,0.2c-3.7,0-9.1-12.8-9.1-17.1c0-1.6,0.4-2.1,0.9-2.5
	c-4.5,0.5-9.9,2.2-11.6,4.2c-0.4,0.5-0.6,1.3-0.6,2.4c0,6.7,7.1,21.8,12.1,21.8C235.3,30.9,239.2,27.1,242.5,21.9 M240.1,2
	c4.6,0,9.3,0.7,9.3,3.4c0,5.3-3.4,11.8-5.1,11.8c-3.1,0-6.9-8.5-6.9-12.8C237.4,2.4,238.2,2,240.1,2"/>
<path d="M265,11.4v19.5h-2.7V11.4h-4.8V9h12.3v2.4L265,11.4L265,11.4z M279.3,20.7v10.2h-2.8V20.7L270.9,9h3l4.1,9.1l4.1-9.1h2.8
	L279.3,20.7z M293.6,22.7H291v8.3h-2.7V9c0,0,2.7-0.2,5.3-0.2c4.7,0,6.1,2.9,6.1,6.8C299.7,20.3,298,22.7,293.6,22.7L293.6,22.7z
	 M293.9,11.1c-1.7,0-2.9,0.2-2.9,0.2v9.1h2.9c1.7,0,3-1.2,3-4.6C296.9,12.7,296.1,11.1,293.9,11.1z M309.8,31.1
	c-5.2,0-6.5-3.7-6.5-11.4c0-7.4,1.4-10.9,6.5-10.9c5.2,0,6.5,3.6,6.5,10.9C316.3,27.4,315,31.1,309.8,31.1z M309.8,11.1
	c-2.8,0-3.7,1.9-3.7,8.8c0,6.7,0.9,9,3.7,9c2.8,0,3.7-2.2,3.7-9C313.6,13,312.6,11.1,309.8,11.1z M324.7,31.1
	c-1.5,0-3.8-0.5-4.1-0.5v-2.3c0.7,0.2,2.7,0.5,4.1,0.5c1.6,0,2.6-1.3,2.6-3.7c0-2.9-0.5-4.4-2.7-4.4h-2.5v-2.3h2.2
	c2.5,0,2.7-2.6,2.7-3.8c0-2.5-0.8-3.5-2.3-3.5c-1.4,0-2.9,0.3-3.9,0.5V9.3c0.3-0.1,2.2-0.5,3.8-0.5c3.2,0,5.1,1.4,5.1,6
	c0,2.1-0.7,4-2.4,4.5c2,0.3,2.7,2.3,2.7,5.4C330,29.4,328.2,31.1,324.7,31.1z"/>
<g>
	<path class="st6" d="M204.2,12.6c0,7.3-6.9,14.1-12.5,17.4c-5.6-3.4-12.5-10.1-12.5-17.4c0-3,1.4-7.5,6.2-7.5
		c4.9,0,6.2,3.8,6.2,3.8s1.4-3.8,6.2-3.8C202.8,5.1,204.2,9.5,204.2,12.6z"/>
</g>
</svg>
